HIERARCHY
ROOT hip
{
  OFFSET 0.0 0.0 0.0
  CHANNELS 6 Xposition Yposition Zposition Zrotation Yrotation Xrotation
  JOINT torso
  {
    OFFSET 0.0 0.0 0.0
    CHANNELS 3 Zrotation Xrotation Yrotation
    JOINT neck
    {
      OFFSET -20.11218299999996 327.95800799999995 66.30578600000035
      CHANNELS 3 Zrotation Xrotation Yrotation
      JOINT head
      {
        OFFSET 18.28939800000012 288.83178699999996 217.81652800000006
        CHANNELS 3 Zrotation Xrotation Yrotation
        End Site
        {
          OFFSET 0.0 0.0 0.0
        }
      }
    }
    JOINT left_collar
    {
      OFFSET -20.11218299999996 327.95800799999995 66.30578600000035
      CHANNELS 3 Zrotation Xrotation Yrotation
      JOINT left_upper_arm
      {
        OFFSET -127.08163400000001 -16.17407199999991 15.44799799999987
        CHANNELS 3 Zrotation Xrotation Yrotation
        JOINT left_forearm
        {
          OFFSET -234.267792 45.78796399999999 109.31286600000021
          CHANNELS 3 Zrotation Xrotation Yrotation
          JOINT left_hand
          {
            OFFSET -259.114014 -33.25433399999997 16.18847699999992
            CHANNELS 3 Zrotation Xrotation Yrotation
            End Site
            {
              OFFSET 0.0 0.0 0.0
            }
          }
        }
      }
    }
    JOINT right_collar
    {
      OFFSET -20.11218299999996 327.95800799999995 66.30578600000035
      CHANNELS 3 Zrotation Xrotation Yrotation
      JOINT right_upper_arm
      {
        OFFSET 164.513184 1.5733030000000099 4.892333999999892
        CHANNELS 3 Zrotation Xrotation Yrotation
        JOINT right_forearm
        {
          OFFSET 260.742027 48.718444999999974 144.35229500000014
          CHANNELS 3 Zrotation Xrotation Yrotation
          JOINT right_hand
          {
            OFFSET 287.85150899999996 -44.57171600000015 13.96813899999961
            CHANNELS 3 Zrotation Xrotation Yrotation
            End Site
            {
              OFFSET 0.0 0.0 0.0
            }
          }
        }
      }
    }
  }
}
MOTION
Frames: 14
Frame Time: 0.01
-266.4383752636218 237.11287391780337 1426.0668423762327 5.320062702349182 -9.217358567089144 -5.104810048050326 0.15286483909955956 2.4317105619946178 0.12202024481357768 -0.6301098879501051 -14.540611587174551 1.3516518186516981 0.0 0.0 0.0 2.1990233394800867 0.7378915763519894 -3.1826066916990134 67.8981186621307 27.732367054050247 6.718279167998753 3.3391825464993823 2.58116401789281 -14.790507091803537 0.0 0.0 0.0 -3.30387665770524 0.16403491892701585 3.405061033869706 -68.38867282145198 40.73304252718063 6.9183288501499165 -4.298321362732027 -0.3482225770269131 -2.8860202562691724 0.0 0.0 0.0
-265.9480652654975 236.6703784374743 1427.3389492796746 5.283704973550976 -9.36013708596043 -4.965599314197845 0.16637904514459909 2.437956738312486 0.11996027356536612 -0.5978865147925542 -14.42672263720419 1.3193867003381348 0.0 0.0 0.0 2.2563694323905943 0.7545060179332239 -3.236048144130787 67.65175752443919 27.859792622225616 6.236700002929167 3.237414242434233 2.559543549203214 -14.781170502463452 0.0 0.0 0.0 -3.3004186909797513 0.16237565904076814 3.3298206563337347 -68.28507381734515 40.76584920434103 7.094492837555964 -4.375290280797 -0.31290041315389777 -2.7130155912559712 0.0 0.0 0.0
-265.4571071021081 236.2208634970707 1428.632897000709 5.245371638326175 -9.50507120292376 -4.823811607289905 0.17978883193461898 2.4437905690627826 0.11789452082810596 -0.5643966381541154 -14.311260321685355 1.2860325861809117 0.0 0.0 0.0 2.316563311301048 0.7717241901331396 -3.2902416760033892 67.39689816323613 27.98627711957771 5.745758509183 3.1346433503173112 2.537980680503907 -14.773271849362756 0.0 0.0 0.0 -3.2960743470941183 0.16064373921569058 3.253245477706641 -68.17560906125333 40.79702923227923 7.274853624842323 -4.454808473152425 -0.27646416988465494 -2.5358860200130042 0.0 0.0 0.0
-264.96595142905755 235.76111449639157 1429.9565148226136 5.2046947091321165 -9.653028155293164 -4.679258201727674 0.19316713782356668 2.449153315780809 0.11580585665559559 -0.5297477562502974 -14.193693984301134 1.2516482091933225 0.0 0.0 0.0 2.380153196271244 0.7895392607129407 -3.344545301471735 67.13237133924432 28.11244797744444 5.242777194138318 3.030058886504228 2.516390899630371 -14.767304337765648 0.0 0.0 0.0 -3.2908294014866932 0.15884302479509066 3.1754781606700657 -68.0584865316274 40.826274603601675 7.460973446526729 -4.537553658413907 -0.23863289097742968 -2.3534017805804397 0.0 0.0 0.0
-264.4749074879392 235.28774301121405 1431.3180793563654 5.1613345529884525 -9.804918632338564 -4.531791509818701 0.206574338002483 2.4539888301076918 0.11367958309092693 -0.49407728487446956 -14.073458854854652 1.21631442205633 0.0 0.0 0.0 2.447678981187722 0.807930106171924 -3.3982327890068778 66.8569522291272 28.2389597225717 4.724883294110925 2.9227680956403175 2.4946576574847117 -14.763672096873762 0.0 0.0 0.0 -3.2846961785331517 0.15697962382405034 3.096696007781106 -67.93194251125982 40.85331693133443 7.654479990438155 -4.6240539695250344 -0.1991194794464461 -2.1643259898218923 0.0 0.0 0.0
-263.98417467348327 234.797323857526 1432.7259655749053 5.115000030421274 -9.961655262288039 -4.381332698715383 0.22005302788666775 2.4582416582362776 0.11150425633274397 -0.45755720564503105 -13.949981951600993 1.1801393113580827 0.0 0.0 0.0 2.5196466072277284 0.8268575216947704 -3.4504980980306392 66.56941909177883 28.36645736197827 4.189128787147597 2.8118264146626473 2.472634662638843 -14.762665948099905 0.0 0.0 0.0 -3.2777176708184883 0.1550621490224916 3.017118509793561 -67.79431263844008 40.87793851150254 7.857007089881473 -4.714638567609588 -0.1576449211095763 -1.9674763719618364 0.0 0.0 0.0
-263.4938713488972 234.2865300823392 1434.1883009244866 5.065467888315789 -10.124111007652672 -4.227896233548771 0.233623920064472 2.461854040470538 0.10927223442949914 -0.42039829511668764 -13.822707240287201 1.143262903618065 0.0 0.0 0.0 2.5965023950108796 0.8462608208777349 -3.500463555751517 66.2686119488695 28.49554177499432 3.632610949071659 2.696268505422252 2.4501490690108017 -14.764442886587096 0.0 0.0 0.0 -3.2699708895238464 0.1531018698900517 2.93701278245828 -67.6441001147528 40.89998308103767 8.070137218838283 -4.809395373053107 -0.11395278002565062 -1.7617849668123873 0.0 0.0 0.0
-263.0040584304318 233.75226016052747 1435.712637675985 5.012600588614956 -10.293079224876179 -4.071609864539632 0.24728310135083 2.464761806299818 0.10697990592186638 -0.3828535809711521 -13.691118817503574 1.105861108847731 0.0 0.0 0.0 2.6786083029271563 0.8660550518843841 -3.5471920963662007 65.95348837732531 28.62673866852713 3.0525881334434857 2.575139286274722 2.4270055367942778 -14.769010288446074 0.0 0.0 0.0 -3.2615692547685398 0.1511127378130763 2.856696227239607 -67.48003787016597 40.91936608604791 8.295348848273155 -4.908138093788509 -0.06782348954759318 -1.5463533241175167 0.0 0.0 0.0
-262.5147556614671 233.19175217865725 1437.3056578301348 4.956361811490584 -10.469237130743299 -3.912728773223528 0.2610008149282287 2.46688927169779 0.1046275764147407 -0.34522067471229695 -13.554760961266918 1.0681485571071583 0.0 0.0 0.0 2.766219042481432 0.8861290445390445 -3.5897036781355984 65.62317374348783 28.760472528672537 2.446585746496927 2.447523929916297 2.402991129874437 -14.776215691279246 0.0 0.0 0.0 -3.252663897778454 0.14911127526957751 2.776535820654281 -67.30114168264063 40.936084332212175 8.533971603602973 -5.010384306810241 -0.019087975414598016 -1.32050097263429 0.0 0.0 0.0
-262.0259490552325 232.60268051978395 1438.9729233858181 4.896828955603614 -10.65311429435663 -3.7516428717725976 0.27472182951026447 2.4681433251836737 0.102219013911608 -0.3078426628740254 -13.413254043067926 1.0303800213809575 0.0 0.0 0.0 2.8594619237752195 0.9063444837557932 -3.6269957671800523 65.27700351471653 28.897046759341865 1.812487913821951 2.312575841792261 2.3778809850092544 -14.785742803945904 0.0 0.0 0.0 -3.2434438049838232 0.14711632884493928 2.6969435633997265 -67.10675158253517 40.95022489283062 8.787151853842563 -5.115345833237242 0.03235985496831372 -1.0838052814638408 0.0 0.0 0.0
-261.5375887040212 231.98323153292858 1440.7186825659119 4.834202065750434 -10.845067512356378 -3.5888766136272507 0.2883673392794298 2.4684069239382413 0.09976067756328108 -0.2711072862716978 -13.266305532760997 0.992850174761341 0.0 0.0 0.0 2.958320228017002 0.9265361790537004 -3.6580675503707822 64.91455566058353 29.036630814593547 1.1486111334997857 2.1695417058807727 2.351444652538912 -14.797114190107163 0.0 0.0 0.0 -3.234134779686708 0.145148694238452 2.6183678210881522 -66.89655933818678 40.96197308244828 9.055830835837769 -5.221932075304254 0.08655223794226932 -0.8361311934754202 0.0 0.0 0.0
-261.0495770184166 231.33215587056372 1442.5457396525692 4.768808750860711 -11.04526302987978 -3.425081114066049 0.3018382127109424 2.4675322128515216 0.09726067698249148 -0.23544418659208186 -13.113715640484383 0.9558914903210932 0.0 0.0 0.0 3.0626208113152136 0.946513663441018 -3.681947304830081 64.53567160357215 29.17925462738201 0.45375725342338313 2.0177828002155085 2.3234529679202107 -14.809700827273286 0.0 0.0 0.0 -3.22499722818911 0.1432306290835794 2.5412805548417317 -66.67062041648579 40.971619174823196 9.340736681626455 -5.328766384952367 0.1434387893785819 -0.5776497191455304 0.0 0.0 0.0
-260.56174841501763 230.64879654656562 1444.455392530797 4.701104812850974 -11.253666586609487 -3.261018860438363 0.31501928726579576 2.465333452002511 0.09472752980402525 -0.20132005476079512 -12.955377497869588 0.9198701587112321 0.0 0.0 0.0 3.1720265323726284 0.9660642036207006 -3.697722106044883 64.14046469539964 29.324810069925633 -0.2727556842376792 1.8567919517211566 2.293685270775544 -14.822738458508162 0.0 0.0 0.0 -3.216322798663128 0.141385275382192 2.4661607349660124 -66.42934953780852 40.97956339494428 9.642390828083853 -5.434214909473124 0.20288033911772607 -0.3088445634134956 0.0 0.0 0.0
-260.0738423922125 229.9330931672966 1446.4474381951095 4.631670483416319 -11.470041274632228 -3.0975417574443935 0.32778430500231415 2.461579926914594 0.0921688032995192 -0.16923159313912584 -12.79127214062171 0.8851799823995825 0.0 0.0 0.0 3.2860339586370233 0.9849572381435842 -3.7045688310410325 63.72931576436969 29.473058620037637 -1.0310849298243474 1.6862057124586987 2.261936748152955 -14.835350339268283 0.0 0.0 0.0 -3.208429918026551 0.13963601684495786 2.393474507764947 -66.17349977335246 40.98631860032913 9.961128339438655 -5.536426704983389 0.2646458013944572 -0.03050682892878942 0.0 0.0 0.0
